<?xml version="1.0" standalone="no"?>
<!DOCTYPE svg PUBLIC "-//W3C//DTD SVG 20010904//EN"
 "http://www.w3.org/TR/2001/REC-SVG-20010904/DTD/svg10.dtd">
<svg version="1.0" xmlns="http://www.w3.org/2000/svg"
 width="920.000000pt" height="768.000000pt" viewBox="0 0 920.000000 768.000000"
 preserveAspectRatio="xMidYMid meet">

<g transform="translate(0.000000,768.000000) scale(0.100000,-0.100000)"
fill="#000000" stroke="none">
<path d="M4373 7024 c-429 -52 -824 -244 -1129 -548 -309 -310 -498 -701 -548
-1137 -13 -109 -16 -263 -16 -816 l0 -683 -25 0 c-56 0 -184 -33 -250 -65
-184 -89 -309 -251 -350 -451 -14 -70 -15 -199 -13 -1119 l3 -1040 28 -82 c67
-199 214 -344 414 -409 l88 -29 2030 0 2030 0 81 27 c86 29 176 82 243 143 62
56 137 175 168 268 l28 82 3 1040 c3 1143 4 1126 -57 1259 -94 204 -274 336
-502 368 l-79 11 0 681 c0 552 -3 706 -16 815 -50 437 -240 829 -550 1138
-417 416 -1000 618 -1581 547z m490 -649 c489 -110 855 -467 984 -957 l27
-103 4 -737 3 -738 -1281 0 -1281 0 3 738 4 737 27 103 c137 521 539 888 1066
972 81 13 363 4 444 -15z"/>
</g>
</svg>
