<?xml version="1.0" standalone="no"?>
<!DOCTYPE svg PUBLIC "-//W3C//DTD SVG 20010904//EN"
 "http://www.w3.org/TR/2001/REC-SVG-20010904/DTD/svg10.dtd">
<svg version="1.0" xmlns="http://www.w3.org/2000/svg"
 width="980.000000pt" height="830.000000pt" viewBox="0 0 980.000000 830.000000"
 preserveAspectRatio="xMidYMid meet">

<g transform="translate(0.000000,830.000000) scale(0.100000,-0.100000)"
fill="#000000" stroke="none">
<path d="M319 8290 c-181 -31 -319 -192 -319 -370 0 -117 69 -243 170 -312 99
-68 102 -68 792 -68 340 0 618 -2 618 -4 0 -2 234 -1092 520 -2422 l520 -2418
-105 -195 c-117 -220 -179 -351 -220 -461 -68 -183 -17 -359 135 -462 79 -54
146 -68 330 -69 l155 0 -70 -18 c-175 -43 -339 -153 -440 -296 -100 -140 -139
-263 -139 -435 -1 -139 16 -208 81 -340 39 -81 60 -109 142 -191 83 -83 110
-103 191 -142 124 -60 208 -80 340 -79 543 2 904 565 679 1060 -92 204 -291
369 -510 422 -72 18 -3 19 2466 18 2117 0 2530 -2 2480 -13 -254 -55 -473
-254 -562 -510 -24 -72 -27 -94 -28 -220 0 -158 17 -233 82 -356 182 -349 614
-499 971 -338 389 175 557 642 367 1018 -72 144 -188 264 -324 334 -69 36
-184 76 -230 79 -14 1 57 4 159 7 181 6 186 7 252 38 291 138 296 532 8 680
l-55 28 -2757 3 c-1854 1 -2758 5 -2758 12 0 6 20 50 44 99 76 151 89 200 83
316 -4 61 -18 148 -36 223 -17 68 -31 130 -31 138 0 9 10 14 28 14 15 0 1408
162 3096 359 l3069 359 73 36 c85 43 133 92 178 186 l31 65 0 1595 0 1595 -27
58 c-38 80 -115 158 -191 193 l-62 29 -3582 3 -3582 2 -10 53 c-71 377 -99
470 -169 562 -41 54 -112 107 -170 127 -43 14 -1604 22 -1683 8z"/>
</g>
</svg>
