<?xml version="1.0" standalone="no"?>
<!DOCTYPE svg PUBLIC "-//W3C//DTD SVG 20010904//EN"
 "http://www.w3.org/TR/2001/REC-SVG-20010904/DTD/svg10.dtd">
<svg version="1.0" xmlns="http://www.w3.org/2000/svg"
 width="348.000000pt" height="348.000000pt" viewBox="0 0 348.000000 348.000000"
 preserveAspectRatio="xMidYMid meet">

<g transform="translate(0.000000,348.000000) scale(0.100000,-0.100000)"
fill="#000000" stroke="none">
<path d="M2020 2825 c-8 -2 -49 -9 -90 -15 -174 -28 -388 -119 -527 -224 l-72
-54 -93 -6 c-486 -35 -864 -282 -952 -623 -20 -76 -20 -221 -1 -293 66 -248
288 -450 619 -564 17 -6 18 -17 11 -204 -3 -108 -9 -206 -12 -217 -7 -27 -6
-26 157 180 l142 180 156 6 c226 10 375 46 548 135 48 24 94 42 103 39 9 -2
70 -7 136 -9 l120 -5 205 -260 c113 -142 205 -259 206 -258 0 1 -3 58 -7 127
-3 69 -10 202 -14 295 l-7 170 99 43 c257 110 443 294 520 514 31 88 42 245
24 339 -27 138 -108 275 -228 390 -122 116 -250 192 -422 249 -154 52 -213 61
-416 65 -104 2 -197 2 -205 0z m430 -149 c483 -104 781 -435 709 -788 -6 -29
-29 -91 -51 -136 -86 -177 -307 -344 -536 -408 l-64 -18 7 -140 c5 -88 4 -137
-2 -131 -5 6 -49 61 -98 123 l-88 112 -132 0 c-202 0 -370 35 -531 110 -448
208 -585 628 -313 958 129 156 370 283 609 322 41 6 82 13 90 15 39 10 332 -5
400 -19z"/>
</g>
</svg>
